<?xml version="1.0" standalone="no"?>
<!DOCTYPE svg PUBLIC "-//W3C//DTD SVG 20010904//EN"
 "http://www.w3.org/TR/2001/REC-SVG-20010904/DTD/svg10.dtd">
<svg version="1.0" xmlns="http://www.w3.org/2000/svg"
 width="1024.000000pt" height="1024.000000pt" viewBox="0 0 1024.000000 1024.000000"
 preserveAspectRatio="xMidYMid meet">

<g transform="translate(0.000000,1024.000000) scale(0.100000,-0.100000)"
fill="#000000" stroke="none">
<path d="M0 5120 l0 -5120 5120 0 5120 0 0 5120 0 5120 -5120 0 -5120 0 0
-5120z m5151 1720 c45 -73 71 -91 92 -65 5 6 7 4 4 -5 -2 -8 -9 -15 -15 -15
-15 0 -13 -13 8 -48 17 -27 17 -27 23 64 4 51 8 430 9 843 2 718 2 732 9 321
3 -236 7 -613 8 -837 0 -265 5 -408 11 -408 6 0 10 7 10 15 0 8 5 15 10 15 6
0 10 7 10 15 0 8 6 15 13 15 8 0 7 4 -3 10 -11 7 -12 12 -4 18 7 4 14 16 17
27 4 18 5 18 6 -2 1 -22 31 -34 31 -13 0 21 20 9 21 -12 4 -71 18 80 20 207 1
90 5 12 10 -195 4 -201 3 -346 -2 -348 -14 -6 -11 -28 6 -42 14 -12 15 20 15
291 -2 849 4 1584 11 1409 3 -102 7 -533 8 -959 1 -684 3 -773 16 -755 17 22
20 54 5 54 -6 0 -8 13 -5 32 10 55 13 368 4 368 -17 0 -10 68 7 74 12 5 15 15
11 39 -3 17 -3 26 0 20 2 -7 22 -13 43 -13 34 0 38 -3 45 -32 12 -56 16 -143
21 -448 2 -162 1 -290 -3 -284 -6 9 -11 9 -19 0 -9 -10 -6 -22 12 -52 l24 -39
1 525 c1 289 3 588 5 665 2 77 4 331 5 565 2 394 3 409 10 210 4 -118 7 -619
7 -1114 1 -494 3 -900 5 -903 3 -2 5 9 5 24 0 334 5 759 9 831 5 68 9 92 19
92 8 0 14 -9 14 -20 0 -15 7 -20 29 -20 25 0 28 -3 25 -22 -4 -21 -4 -21 5 -3
4 11 6 24 4 28 -3 5 -1 19 5 30 5 12 14 33 20 47 8 18 11 -141 10 -590 l0
-615 32 -55 c18 -30 110 -170 205 -310 94 -140 197 -299 229 -353 62 -107 310
-474 352 -522 15 -16 26 -32 26 -35 -2 -8 80 -122 100 -139 10 -8 18 -20 18
-26 0 -5 10 -21 21 -35 l21 -25 -16 27 c-16 27 -15 30 18 42 16 5 18 2 14 -22
-3 -25 -1 -28 18 -24 13 2 28 16 34 33 11 25 9 34 -14 73 -14 24 -42 66 -63
93 -20 26 -50 73 -66 103 -16 30 -49 81 -73 113 -23 31 -55 82 -69 113 -32 67
-31 68 52 181 32 43 57 82 55 87 -5 15 9 46 21 46 7 0 32 35 56 78 24 42 55
91 68 109 l25 32 176 0 c183 0 244 -6 207 -19 -11 -4 -25 -4 -30 0 -6 5 -21 3
-34 -4 l-23 -13 30 -6 c29 -6 30 -8 21 -39 -5 -18 -9 -47 -9 -63 l0 -31 114
-18 c78 -12 120 -15 133 -8 10 6 42 12 72 15 60 6 109 40 82 56 -10 7 -8 9 10
9 30 -1 91 23 102 40 6 10 11 9 23 -3 10 -10 35 -15 70 -15 l54 0 0 39 c0 22
-5 42 -12 44 -7 3 2 6 20 6 25 1 32 -3 32 -18 0 -15 5 -18 22 -13 18 4 19 6 5
11 -9 3 -13 11 -9 16 10 14 129 18 137 5 4 -6 15 -8 26 -5 15 5 19 1 19 -14 0
-21 -5 -22 -65 -25 -11 -1 -25 -12 -31 -24 -6 -13 -15 -22 -18 -20 -4 2 -12
-5 -17 -15 -12 -20 9 -47 35 -47 9 0 16 -4 16 -9 0 -5 8 -12 18 -15 9 -2 27
-7 40 -11 18 -5 22 -2 22 15 0 12 4 18 10 15 6 -4 8 -11 4 -17 -3 -5 8 -2 26
7 26 13 38 15 57 6 32 -15 38 -14 23 4 -9 10 -9 15 -1 15 6 0 11 -3 12 -7 5
-49 13 -71 29 -85 11 -9 20 -19 20 -23 0 -17 32 -35 63 -35 29 0 35 -4 39 -25
3 -14 1 -25 -3 -25 -5 0 -12 -12 -15 -27 -4 -16 -11 -34 -17 -41 -5 -7 -7 -15
-4 -18 3 -3 15 11 25 33 57 110 165 140 250 68 16 -13 33 -21 37 -17 5 4 5 2
2 -4 -4 -7 0 -28 8 -48 17 -41 30 -49 14 -10 -8 24 -8 25 6 14 10 -8 15 -9 15
-1 0 6 9 11 19 11 13 0 18 -6 17 -17 -3 -17 15 -18 223 -23 296 -7 307 -6 314
29 10 46 45 80 101 96 49 14 57 14 106 -2 100 -34 146 -133 102 -219 -49 -95
-128 -126 -218 -85 -33 15 -46 30 -65 70 l-24 50 -297 1 -296 0 -22 -45 c-35
-73 -88 -100 -161 -84 -56 13 -95 42 -120 90 l-20 39 -667 -6 c-367 -4 -669
-8 -671 -10 -2 -2 132 -4 299 -4 167 0 301 -3 297 -6 -3 -3 -26 -6 -51 -6 -25
0 -46 -4 -46 -9 0 -5 7 -9 16 -9 15 0 15 -2 1 -23 -8 -12 -22 -21 -31 -21 -9
1 -16 -6 -16 -16 0 -14 11 -17 65 -19 36 -1 65 2 65 7 0 9 29 18 87 29 28 5
76 50 60 56 -23 7 143 17 188 10 45 -6 63 -23 25 -23 -13 0 -20 -7 -20 -20 0
-11 5 -20 10 -20 6 0 17 -14 24 -31 7 -17 32 -44 56 -60 24 -16 37 -29 30 -29
-11 0 -11 -13 2 -111 2 -13 8 -15 37 -7 52 15 95 2 130 -38 17 -19 31 -39 31
-44 0 -6 15 -9 33 -9 25 1 27 3 9 6 l-24 5 23 24 c13 13 17 24 10 24 -7 0 -10
4 -7 9 3 4 17 6 31 3 21 -4 25 -10 25 -38 l0 -33 163 2 c89 1 134 3 100 5
l-63 3 0 99 c0 60 -4 100 -10 100 -5 0 -10 9 -10 19 0 22 19 28 68 23 23 -3
32 -9 32 -23 0 -10 -4 -19 -10 -19 -5 0 -10 5 -10 10 0 6 -13 10 -30 10 -16 0
-30 -4 -30 -10 0 -5 9 -10 20 -10 16 0 20 -7 20 -30 0 -23 4 -30 20 -30 11 0
20 5 20 10 0 6 9 10 20 10 15 0 20 -7 20 -29 0 -16 7 -37 16 -45 14 -15 14
-16 0 -16 -11 0 -16 -9 -16 -27 l0 -28 21 32 c40 63 122 94 196 74 84 -23 126
-81 126 -172 -1 -58 -12 -89 -44 -125 -19 -20 -19 -21 48 -80 37 -32 72 -58
78 -56 5 2 7 0 3 -3 -9 -10 42 -81 96 -134 l42 -41 29 30 c48 51 134 35 175
-33 54 -88 -11 -197 -117 -197 -35 0 -48 6 -78 35 -19 20 -38 47 -41 60 l-6
25 -187 3 c-443 5 -467 4 -475 -26 -7 -29 -49 -73 -86 -92 -58 -30 -144 16
-170 92 -11 30 -12 30 -48 20 -20 -6 -46 -19 -58 -29 -11 -10 -24 -15 -27 -11
-4 3 -7 0 -7 -9 0 -24 175 -189 194 -182 9 3 16 12 16 20 0 18 59 83 60 66 0
-16 24 -42 39 -42 7 0 11 -30 11 -80 0 -44 -2 -80 -5 -80 -3 0 -18 8 -33 17
-15 9 10 -21 54 -68 45 -46 100 -103 121 -126 46 -50 57 -53 49 -16 -3 16 -3
22 0 16 8 -19 22 -16 29 6 8 25 67 45 111 38 68 -11 124 -80 124 -153 0 -76
-68 -133 -159 -134 -38 0 -49 5 -81 39 -20 21 -40 53 -44 71 -4 24 -41 68
-135 164 -70 72 -165 172 -210 223 -82 92 -226 220 -243 215 -5 -1 -7 1 -4 6
3 5 -14 27 -37 50 -34 33 -43 38 -43 23 0 -10 5 -17 11 -15 5 2 11 -6 12 -18
1 -13 5 -40 9 -60 5 -31 1 -48 -25 -92 -26 -47 -28 -55 -14 -60 12 -5 14 -9 5
-18 -7 -7 -12 -20 -12 -30 0 -10 -5 -18 -11 -18 -15 0 -1 -126 18 -165 l15
-30 -24 25 c-13 14 -39 39 -58 55 -19 16 -11 4 19 -27 42 -44 58 -55 68 -46 7
6 13 9 14 7 7 -34 6 -37 -9 -32 -10 3 3 -15 27 -40 24 -25 49 -45 55 -44 6 1
10 -3 9 -10 -2 -11 177 -210 204 -227 17 -9 371 -2 418 9 29 7 29 7 12 -11
-16 -17 -38 -19 -220 -22 -123 -2 -206 -7 -214 -14 -10 -8 -53 31 -181 163
-93 96 -197 206 -233 244 -35 39 -118 126 -184 195 -67 69 -193 204 -282 300
-88 96 -176 189 -194 205 l-33 30 28 -34 c21 -27 26 -42 24 -75 -2 -33 -7 -40
-20 -38 -15 2 -18 -5 -18 -37 0 -22 5 -41 11 -43 6 -2 15 -24 19 -48 30 -169
86 -310 123 -310 11 0 21 -9 24 -20 3 -11 12 -20 19 -20 8 0 17 -13 21 -30 3
-16 9 -30 14 -30 5 0 9 -7 9 -16 0 -20 24 -44 44 -44 9 0 16 -8 16 -20 0 -11
6 -20 13 -20 13 0 37 -40 37 -61 0 -6 7 -17 15 -26 9 -8 19 -28 22 -44 3 -16
12 -29 19 -29 9 0 14 -12 14 -35 0 -24 -5 -35 -15 -35 -8 0 -15 7 -15 16 0 8
-4 12 -10 9 -10 -6 -60 41 -60 56 0 5 -5 9 -10 9 -13 0 32 -68 106 -160 28
-36 57 -75 63 -88 7 -12 16 -20 21 -17 6 3 7 0 4 -8 -3 -9 22 -48 60 -95 68
-83 76 -98 52 -89 -19 7 -87 -59 -80 -77 3 -8 -4 -19 -16 -26 -12 -7 -19 -18
-16 -25 6 -17 -4 -24 -38 -27 -14 -1 -26 -6 -26 -10 0 -4 -5 -8 -10 -8 -21 0
13 45 87 115 l73 71 -46 59 c-25 33 -55 77 -65 98 -12 22 -24 35 -31 31 -7 -4
-8 -3 -4 5 6 10 -57 111 -70 111 -10 0 -2 -18 16 -37 15 -17 16 -24 7 -32 -10
-7 -13 -5 -14 11 -1 12 -6 24 -10 27 -14 11 -34 52 -29 60 3 4 -6 23 -21 42
-14 19 -23 26 -20 17 3 -10 2 -20 -3 -23 -6 -4 -10 -1 -10 4 0 14 -57 14 -65
1 -3 -5 -26 -10 -51 -10 -28 0 -43 4 -39 10 3 6 2 10 -3 10 -4 0 -18 9 -31 21
-38 36 -35 13 5 -33 l38 -43 -38 35 c-39 36 -112 142 -186 270 -51 89 -207
324 -429 650 -166 244 -335 497 -482 723 -47 73 -148 226 -225 340 -76 114
-170 256 -209 315 -38 59 -115 173 -169 252 -54 80 -128 192 -163 249 -167
272 -345 482 -477 560 -44 26 -104 62 -132 80 -64 40 -164 58 -231 41 -51 -12
-62 -8 -42 17 7 10 -21 -17 -64 -59 -86 -86 -241 -312 -332 -485 -32 -59 -84
-155 -115 -213 -32 -58 -104 -190 -160 -295 -56 -104 -129 -237 -160 -295 -32
-58 -96 -179 -143 -270 -47 -91 -112 -212 -144 -270 -33 -58 -106 -188 -162
-290 -57 -102 -136 -243 -176 -315 -340 -608 -358 -644 -466 -915 -24 -60 -38
-81 -72 -107 -53 -40 -85 -102 -93 -179 -5 -51 -3 -62 15 -83 12 -13 21 -28
21 -32 0 -4 8 -15 17 -25 17 -17 16 -17 -12 -10 -22 5 -26 4 -15 -4 8 -5 46
-10 83 -10 70 0 97 12 97 44 0 9 5 16 10 16 6 0 10 -7 10 -16 0 -13 3 -14 14
-5 11 9 16 9 21 1 5 -8 21 1 46 26 37 36 39 42 38 91 -2 53 14 89 34 76 6 -3
7 -1 3 5 -4 6 9 33 28 59 19 26 72 127 118 223 120 250 317 545 461 692 81 82
121 115 174 142 141 71 105 68 951 73 419 3 762 2 762 -1 0 -12 -39 -83 -95
-176 -30 -50 -55 -93 -55 -96 0 -2 -19 -35 -41 -72 -23 -37 -99 -161 -169
-277 -220 -365 -330 -539 -355 -565 -46 -48 -22 -100 46 -100 147 0 417 225
564 470 21 36 69 110 106 165 37 55 96 145 131 200 150 233 179 274 241 342
l65 72 41 -59 c23 -32 41 -63 41 -70 0 -19 -30 -71 -130 -220 -53 -80 -120
-188 -150 -240 -29 -52 -67 -115 -85 -140 -17 -25 -58 -88 -90 -140 -57 -91
-76 -119 -212 -310 -33 -47 -75 -111 -93 -143 l-32 -58 0 -742 c1 -457 -2
-734 -8 -720 -5 12 -10 331 -11 738 -1 658 -3 715 -18 711 -28 -8 -756 -19
-779 -12 -20 7 -18 12 42 99 35 51 85 130 111 177 26 47 102 167 169 267 214
321 452 700 444 708 -2 2 -276 5 -608 6 -476 2 -614 -1 -645 -11 -133 -44
-236 -166 -421 -500 -31 -58 -121 -215 -198 -350 -77 -135 -158 -277 -180
-317 -33 -57 -47 -73 -70 -77 -16 -3 -208 -6 -427 -6 -339 0 -399 2 -399 14 0
8 33 63 74 123 40 59 98 151 128 203 30 52 84 140 118 195 55 87 240 412 240
422 0 1 31 54 69 115 38 62 92 160 121 218 29 58 67 128 85 155 17 28 56 95
85 150 30 55 65 118 79 140 14 22 53 92 87 155 33 63 98 183 143 265 45 83
111 209 147 280 37 72 90 173 119 225 29 52 90 165 135 250 153 286 292 534
338 605 25 39 60 97 77 130 52 97 173 312 240 425 35 58 77 134 95 170 18 36
43 80 57 98 23 30 27 32 89 32 l64 0 1 238 c1 130 5 336 8 457 6 192 8 162 9
-237 l2 -458 85 0 85 0 0 113 c1 241 12 872 16 876 2 2 4 -219 4 -493 l0 -497
34 -35 c18 -19 51 -62 71 -97 83 -134 75 -176 76 407 1 284 3 521 4 526 1 6 4
101 6 213 2 111 6 -138 9 -553 l5 -755 46 -75z m1334 1519 c8 -15 15 -41 15
-57 0 -24 -7 -32 -42 -48 -66 -30 -353 -331 -397 -418 -22 -41 -23 -54 -17
-133 9 -126 8 -1628 -1 -1748 -7 -97 -8 -98 -14 -45 -11 94 -12 1932 0 1960
l10 25 0 -24 c1 -21 4 -19 29 18 43 63 138 176 223 264 43 44 84 97 94 120 9
23 22 50 27 61 7 13 6 21 -3 26 -6 5 -9 14 -6 22 9 26 66 10 82 -23z m-2172
-1122 c-3 -174 -10 -320 -15 -323 -5 -3 -7 47 -4 118 2 68 6 377 7 688 l2 565
8 -365 c5 -201 6 -508 2 -683z m2197 914 c0 -44 -27 -82 -147 -202 l-125 -127
3 -346 c4 -322 5 -346 22 -346 9 0 17 4 17 10 0 5 6 7 14 4 8 -3 24 0 36 6 12
6 24 9 28 6 7 -8 -19 -56 -30 -56 -5 0 -7 4 -4 8 2 4 -4 9 -15 9 -18 2 -18 1
3 -16 12 -10 29 -17 38 -14 9 3 11 1 5 -4 -5 -4 -10 -36 -10 -70 0 -54 -3 -65
-28 -91 -16 -17 -24 -32 -19 -36 6 -3 12 -1 14 6 3 7 20 11 46 10 41 -3 42 -2
43 30 l1 33 7 -30 c3 -16 4 191 3 460 -2 270 0 487 4 482 4 -4 10 -155 13
-336 5 -292 10 -356 25 -340 2 2 6 24 8 49 2 35 10 52 35 77 52 52 61 45 66
-49 6 -99 16 -158 27 -158 4 0 12 141 16 313 l9 312 6 -210 c7 -215 12 -606 9
-615 -1 -3 -4 -32 -7 -65 -3 -33 -10 -63 -16 -67 -7 -3 -34 -27 -62 -52 -27
-25 -53 -46 -57 -46 -4 0 -14 -7 -22 -16 -12 -12 -16 -12 -17 -2 0 7 -4 4 -9
-7 -5 -11 -9 -65 -9 -119 -1 -162 -13 -102 -21 106 l-7 193 -1 -157 c-1 -88
-6 -158 -11 -158 -5 0 -20 -10 -33 -21 -13 -12 -40 -22 -60 -24 l-36 -2 2 154
c0 84 4 153 8 153 5 0 8 9 8 20 0 31 -17 23 -24 -11 -3 -17 -6 -113 -6 -214 0
-100 -3 -244 -7 -321 -10 -208 -24 -122 -27 171 -2 132 -4 286 -5 343 l-1 103
-35 20 c-38 23 -49 47 -46 98 3 50 29 99 62 118 18 11 29 25 28 38 -1 17 -2
17 -6 3 -5 -19 -33 -25 -33 -9 0 6 10 26 22 46 21 36 21 42 15 337 l-7 300 83
87 c82 85 167 190 167 206 0 11 31 45 42 45 4 0 8 -9 8 -19z m-2541 -137 c12
-15 21 -38 21 -52 0 -29 -34 -87 -55 -96 -13 -5 -15 -45 -15 -261 l0 -257 29
-28 c47 -47 45 -110 -4 -135 -19 -9 -20 -21 -20 -225 0 -158 3 -221 13 -238 7
-12 16 -20 20 -18 5 3 9 -4 9 -15 2 -18 0 -18 -27 -4 -16 8 -34 24 -40 34 -6
13 -8 95 -3 234 l6 216 -31 26 c-44 36 -44 84 -2 127 l30 30 0 248 0 248 -36
36 c-33 33 -36 41 -31 74 12 74 95 108 136 56z m153 -652 c2 -350 -1 -577 -6
-555 -4 21 -9 117 -10 213 -1 237 7 1025 10 975 2 -22 5 -307 6 -633z m1908
545 c0 -1 -38 -43 -85 -92 l-84 -90 -1 -749 c0 -412 2 -747 5 -745 2 3 9 113
15 245 6 131 13 258 16 282 5 39 8 42 35 42 l29 0 0 73 c0 45 4 67 9 58 15
-23 24 60 31 294 4 149 7 -13 8 -503 l1 -724 -38 -36 c-21 -21 -54 -48 -74
-62 -21 -15 -38 -36 -41 -52 -3 -16 -10 -28 -16 -28 -7 0 -10 312 -10 963 l0
963 62 54 c95 84 138 117 138 107z m-1517 -727 c-11 -11 -13 28 -13 200 0 118
3 280 8 360 6 131 7 112 12 -200 4 -267 2 -348 -7 -360z m1694 218 c-2 -13 -4
-3 -4 22 0 25 2 35 4 23 2 -13 2 -33 0 -45z m383 12 c0 -5 -4 -10 -10 -10 -5
0 -10 5 -10 10 0 6 5 10 10 10 6 0 10 -4 10 -10z m1101 -60 c55 0 69 -3 69
-15 0 -8 9 -15 20 -15 11 0 23 -7 26 -15 3 -8 21 -32 40 -52 19 -21 30 -39 24
-41 -5 -2 -7 -8 -4 -13 8 -14 -32 -70 -69 -96 -27 -20 -32 -21 -42 -6 -11 14
-18 14 -81 -5 -58 -18 -86 -35 -165 -101 -149 -124 -286 -298 -449 -571 -84
-140 -257 -420 -340 -550 -89 -140 -165 -265 -234 -382 -32 -53 -74 -116 -95
-139 l-38 -43 -30 42 c-57 79 -60 94 -25 165 52 104 239 407 423 687 166 251
509 793 509 804 0 2 -11 3 -25 0 -20 -3 -23 -1 -18 13 21 60 -115 -145 -477
-722 -34 -55 -118 -183 -185 -285 -67 -102 -148 -232 -179 -290 -32 -58 -76
-129 -98 -159 l-40 -53 -15 30 c-8 17 -30 48 -49 70 -19 22 -34 50 -34 61 0
25 32 92 65 136 19 27 85 133 252 408 30 49 75 121 102 160 69 103 177 277
237 382 86 150 255 429 272 448 13 14 13 17 1 12 -8 -3 -34 -36 -59 -73 -46
-68 -246 -282 -264 -282 -6 0 12 23 39 50 27 28 46 50 43 50 -4 0 -16 -10 -27
-21 -12 -13 -26 -19 -35 -16 -13 5 -16 25 -16 102 l0 95 60 0 c53 0 60 2 60
20 0 15 7 20 26 20 17 0 39 14 65 41 32 33 44 40 64 35 25 -6 36 8 13 17 -7 3
15 6 50 6 55 1 62 3 62 21 0 17 7 20 40 20 22 0 40 5 40 10 0 6 9 10 20 10 11
0 20 5 20 10 0 6 18 10 40 10 22 0 40 -4 40 -10 0 -5 9 -10 20 -10 11 0 20 5
20 10 0 6 40 10 100 10 67 0 100 4 100 11 0 8 11 9 31 5 17 -3 62 -6 100 -6z
m-1484 -62 c-2 -13 -4 -5 -4 17 -1 22 1 32 4 23 2 -10 2 -28 0 -40z m-2850
-39 c44 -16 71 -47 89 -101 15 -45 15 -53 -1 -100 -15 -47 -15 -51 2 -71 10
-11 100 -108 200 -214 100 -107 202 -224 226 -261 24 -37 52 -74 62 -82 9 -7
31 -34 48 -59 29 -42 -42 29 -438 439 -77 80 -144 147 -148 149 -4 1 -21 -2
-38 -9 l-29 -12 0 -132 1 -131 42 -21 c63 -31 89 -81 84 -166 l-4 -66 69 -69
c75 -73 198 -215 216 -249 11 -21 9 -21 -146 -27 -86 -4 -241 -7 -344 -7
l-188 0 -33 -36 c-28 -31 -40 -37 -76 -37 -65 0 -96 36 -96 109 0 50 3 58 33
85 28 25 41 30 75 27 38 -3 45 -8 72 -50 l30 -48 311 0 310 0 -135 134 -135
134 -31 -15 c-78 -41 -179 -3 -216 83 -11 24 -25 42 -30 38 -14 -8 -59 4 -59
16 0 5 16 12 36 16 26 5 38 13 45 33 19 52 31 69 70 92 l38 24 1 133 c0 118
-2 133 -17 138 -42 12 -69 32 -91 64 l-22 35 -328 3 -328 3 -37 -62 -38 -63
108 -109 c59 -60 139 -134 176 -164 82 -66 122 -133 95 -159 -15 -15 -18 -13
-42 25 -15 23 -48 57 -74 76 -26 18 -105 97 -176 173 l-129 140 -57 -5 c-53
-5 -59 -3 -94 27 -50 44 -69 84 -70 147 0 43 5 60 29 94 79 111 217 101 287
-20 l22 -38 110 -7 c61 -3 204 -6 318 -6 l206 0 16 48 c16 47 49 87 91 110 26
15 96 15 132 1z m2823 -120 c0 -3 -10 -14 -22 -25 -12 -10 -18 -13 -14 -6 4 7
2 12 -6 13 -9 0 -9 2 -2 5 7 3 9 14 7 25 -5 19 -4 20 16 8 11 -8 21 -17 21
-20z m2684 -28 c-7 -8 28 -41 37 -35 5 3 9 2 10 -3 0 -4 3 -17 5 -28 13 -50
16 -123 6 -129 -8 -5 -8 -15 -1 -33 6 -18 6 -30 -2 -39 -9 -11 -8 -14 5 -14 9
0 16 -4 16 -10 0 -5 -4 -10 -10 -10 -5 0 -10 -18 -10 -41 0 -36 -3 -40 -22
-39 -13 1 -40 2 -60 1 l-38 -1 0 -80 c0 -73 -2 -80 -20 -80 -18 0 -20 -7 -20
-80 0 -73 2 -80 20 -80 13 0 20 -7 20 -20 0 -17 7 -20 40 -20 33 0 40 -3 40
-20 0 -13 7 -20 20 -20 17 0 20 -7 20 -40 0 -29 -4 -40 -15 -40 -8 0 -15 -9
-15 -20 0 -16 7 -20 35 -20 28 0 35 -4 35 -20 0 -17 7 -20 40 -20 l40 0 0 60
0 60 40 0 40 0 0 65 c0 60 2 65 23 66 l22 2 -22 4 c-38 7 -26 23 17 23 22 0
40 -4 40 -10 0 -5 5 -10 10 -10 6 0 10 7 10 16 0 8 7 22 15 30 8 9 15 12 15 8
0 -4 9 1 20 11 11 10 18 21 15 25 -2 4 2 7 9 7 9 0 5 -14 -11 -45 -13 -24 -22
-46 -19 -49 2 -2 14 15 27 39 13 23 40 53 59 66 29 20 43 23 85 18 37 -4 46
-3 35 5 -10 7 -10 9 -2 7 8 -2 13 -8 13 -13 0 -6 9 -19 19 -30 69 -74 44 -193
-47 -224 -39 -14 -44 -13 -94 11 l-52 27 -45 -50 c-24 -27 -83 -89 -131 -137
l-87 -88 18 -39 c24 -52 20 -150 -7 -191 -11 -16 -18 -32 -17 -36 1 -5 -1 -7
-6 -6 -4 1 -18 -4 -32 -12 -38 -21 -98 -29 -136 -18 -43 11 -98 59 -114 98
l-12 30 -232 0 c-153 0 -226 -4 -216 -10 13 -9 13 -10 0 -11 -8 -1 -1 -4 15
-8 17 -4 33 -3 36 2 12 17 26 -2 21 -28 -3 -20 0 -25 17 -25 11 0 21 -4 21
-10 0 -5 6 -10 14 -10 8 0 17 -6 19 -12 3 -7 6 -3 6 10 1 29 41 32 41 2 0 -13
7 -20 20 -20 13 0 20 -7 20 -18 0 -11 -9 -27 -20 -37 -11 -10 -20 -26 -20 -37
0 -11 -7 -18 -20 -18 -11 0 -20 -4 -20 -10 0 -5 -9 -10 -20 -10 -11 0 -20 -7
-20 -15 0 -11 -11 -15 -40 -15 -22 0 -40 -4 -40 -10 0 -5 9 -10 21 -10 16 0
19 -4 15 -17 -4 -9 -1 -20 5 -24 6 -4 12 -17 13 -30 1 -23 4 -24 92 -27 l91
-3 74 60 c41 33 100 89 131 124 31 35 67 67 80 70 23 6 23 6 -2 -13 -14 -11
-22 -20 -17 -21 25 -5 33 -4 45 5 12 8 13 -7 9 -86 -6 -106 -1 -118 47 -119
30 -1 30 -1 -9 -14 -36 -11 -16 -13 182 -14 l222 -1 10 38 c18 65 82 112 153
112 114 -1 200 -125 159 -232 -24 -63 -126 -119 -188 -103 -41 10 -92 52 -110
91 l-17 34 -205 0 c-113 0 -460 5 -770 11 -547 11 -564 11 -574 -7 -60 -110
-202 -123 -272 -27 l-30 42 -293 -2 c-215 -1 -292 1 -292 10 0 6 56 86 125
178 76 101 125 176 125 190 0 12 7 28 16 36 31 25 144 208 138 223 -4 10 5 20
25 30 17 9 48 40 69 69 22 28 46 58 55 66 19 15 23 51 5 51 -6 0 -9 2 -7 5 3
2 20 -1 38 -8 23 -8 34 -9 39 -1 4 6 14 13 22 16 8 3 -30 9 -85 14 l-100 9 70
6 70 5 -63 2 c-62 2 -62 2 -58 28 7 37 9 38 81 42 36 2 65 8 65 13 0 5 9 9 20
9 11 0 20 5 20 10 0 6 9 10 20 10 11 0 20 5 20 10 0 6 14 10 30 10 17 0 30 5
30 10 0 6 -4 10 -10 10 -5 0 -10 5 -10 10 0 6 9 10 20 10 11 0 20 5 20 10 0 6
-8 10 -17 10 -10 0 -25 5 -33 11 -13 9 -12 10 2 5 9 -3 38 2 63 10 33 12 45
21 45 36 0 19 5 20 62 16 35 -3 57 -3 50 0 -26 8 -10 22 28 22 22 0 40 5 40
10 0 6 -18 10 -40 10 -22 0 -40 5 -40 10 0 6 18 10 40 10 38 0 40 2 40 30 l0
30 140 0 c133 0 140 1 140 20 0 17 7 20 40 20 22 0 40 5 40 10 0 6 14 10 30
10 17 0 30 5 30 10 0 6 7 10 16 10 23 0 44 25 44 54 0 22 4 26 30 26 23 0 30
4 30 20 0 16 7 20 30 20 21 0 30 5 30 16 0 22 32 53 38 36 2 -6 13 -12 24 -12
14 0 18 5 14 15 -5 13 -2 14 15 4 21 -11 20 -12 -12 -47 -33 -36 -33 -36 9 3
24 22 55 62 68 88 33 63 74 88 141 85 28 -2 49 -5 47 -7z m-1077 -45 c0 -8 -6
-12 -13 -9 -16 6 -68 -103 -57 -120 3 -5 2 -7 -3 -4 -11 6 -77 -98 -77 -120 0
-7 -3 -11 -5 -8 -3 3 -52 -66 -108 -152 -322 -496 -390 -600 -535 -828 -88
-137 -178 -279 -202 -314 -23 -35 -60 -97 -82 -138 -22 -40 -78 -128 -124
-194 l-84 -121 -48 73 c-26 41 -48 79 -49 85 0 6 19 40 42 75 23 35 78 127
123 204 45 77 153 255 240 395 87 140 188 305 225 365 275 453 331 536 410
615 78 79 151 128 245 164 39 14 77 31 85 36 8 5 15 10 16 10 0 0 1 -6 1 -14z
m-1820 -48 c-3 -7 -5 -2 -5 12 0 14 2 19 5 13 2 -7 2 -19 0 -25z m2683 -13
c-7 -9 -15 -13 -17 -11 -6 6 20 36 26 30 2 -2 -2 -10 -9 -19z m-3403 -107 c-3
-7 -5 -2 -5 12 0 14 2 19 5 13 2 -7 2 -19 0 -25z m-3549 -63 c25 -27 32 -43
32 -76 0 -42 26 -88 89 -158 17 -19 33 -43 37 -53 3 -10 12 -18 20 -18 8 0 19
-11 24 -24 5 -13 15 -26 22 -29 7 -2 11 -7 8 -10 -14 -16 -151 117 -211 205
-3 4 -23 -1 -44 -12 -68 -35 -121 -22 -162 39 -29 43 -29 89 0 132 45 67 125
68 185 4z m4499 33 c-3 -8 -6 -5 -6 6 -1 11 2 17 5 13 3 -3 4 -12 1 -19z
m-950 -60 c-3 -8 -6 -5 -6 6 -1 11 2 17 5 13 3 -3 4 -12 1 -19z m955 -90 c7
-191 -7 -429 -27 -472 -17 -36 -20 -37 -54 -31 -48 9 -51 12 -51 46 0 28 2 29
45 29 l45 0 0 50 c0 38 -4 50 -15 50 -8 0 -15 -4 -15 -10 0 -5 -11 -12 -24
-16 -14 -3 -27 -13 -29 -22 -3 -10 -5 75 -6 188 -1 226 2 250 31 250 10 0 16
5 13 10 -3 6 0 10 8 10 8 0 20 7 27 15 7 8 20 15 30 15 16 0 18 -13 22 -112z
m-1427 -103 c50 -8 154 -64 220 -119 126 -103 317 -335 421 -512 26 -44 99
-158 164 -254 245 -365 397 -594 460 -694 36 -57 99 -156 140 -220 41 -65 98
-154 126 -199 28 -45 94 -145 147 -222 380 -553 538 -795 532 -813 -3 -7 -1
-10 4 -7 7 4 70 -90 119 -179 30 -55 -352 313 -470 452 -39 45 -100 125 -137
177 -36 52 -132 188 -212 302 -81 115 -186 269 -234 343 -49 74 -192 290 -318
480 -127 190 -298 458 -380 595 -247 412 -439 616 -594 632 -112 12 -226 -78
-358 -282 -165 -254 -646 -1199 -680 -1336 -17 -69 45 -168 131 -209 38 -17
77 -23 222 -31 206 -13 1121 -3 1252 12 54 6 116 23 171 45 48 18 92 34 98 34
11 0 79 -126 70 -133 -9 -8 -217 -77 -264 -88 -34 -8 -177 -11 -455 -10 -223
0 -576 -5 -785 -13 -364 -13 -383 -14 -454 -39 -68 -24 -106 -45 -172 -97
l-27 -20 33 63 c31 60 56 177 37 177 -15 0 -39 -33 -69 -95 -16 -33 -41 -78
-55 -100 -14 -22 -41 -74 -60 -116 -33 -71 -110 -182 -298 -431 -41 -54 -100
-134 -132 -176 -58 -80 -174 -200 -162 -169 3 9 9 17 13 17 12 0 -1 63 -15 77
-10 11 -7 25 16 76 29 64 108 211 202 377 89 156 199 352 318 570 63 113 146
261 185 330 39 69 109 197 155 285 45 88 133 255 195 370 62 116 177 332 255
480 152 288 317 552 382 610 21 20 51 41 66 46 36 14 112 27 137 23 11 -1 38
-6 60 -9z m4662 -41 c-3 -3 -12 -4 -19 -1 -8 3 -5 6 6 6 11 1 17 -2 13 -5z
m-8209 -71 c42 -48 43 -92 3 -155 -36 -56 -76 -69 -135 -44 -90 38 -92 192 -3
232 49 21 96 10 135 -33z m1253 -210 c13 -16 12 -17 -3 -4 -17 13 -22 21 -14
21 2 0 10 -8 17 -17z m2364 -28 c22 -13 60 -43 85 -67 61 -58 197 -235 255
-333 27 -44 61 -96 75 -115 15 -19 57 -83 93 -142 36 -58 131 -204 210 -325
257 -389 316 -480 406 -626 104 -168 245 -377 311 -462 26 -33 75 -103 110
-155 35 -52 124 -171 199 -264 152 -188 171 -216 174 -245 1 -12 5 -21 9 -21
4 0 8 -6 8 -12 1 -13 11 -33 98 -195 23 -44 65 -105 93 -136 28 -31 47 -57 42
-57 -5 0 -15 9 -23 20 -8 11 -19 20 -24 20 -5 0 -15 8 -22 18 -13 16 -14 16
-8 0 3 -10 1 -18 -5 -18 -6 0 -11 -4 -11 -10 0 -5 8 -10 19 -10 11 0 18 -6 16
-17 -2 -20 -44 -113 -45 -99 0 5 -7 3 -15 -4 -8 -7 -24 -10 -34 -7 -19 5 -19
3 3 -32 34 -55 37 -61 33 -61 -12 0 -107 161 -101 171 4 8 3 9 -4 5 -14 -8
-46 50 -36 66 4 7 3 8 -4 4 -14 -8 -46 50 -36 66 4 6 3 8 -3 5 -6 -4 -41 43
-79 104 -38 61 -89 138 -114 172 -24 34 -135 199 -247 367 -111 168 -235 352
-276 410 -40 58 -107 159 -149 225 -42 66 -147 226 -233 355 -262 389 -417
619 -496 733 -41 60 -102 153 -136 207 -112 177 -187 275 -215 278 -30 4 -79
-35 -112 -87 -44 -69 -240 -406 -274 -471 -19 -36 -40 -72 -47 -80 -7 -8 -65
-116 -129 -238 l-116 -224 26 -20 c17 -14 22 -23 14 -28 -7 -4 -10 -32 -8 -76
l3 -69 85 0 84 0 4 220 c2 121 5 222 8 224 2 2 4 -98 4 -222 l0 -227 90 0 90
0 1 88 c1 48 5 119 9 157 6 57 7 41 8 -88 l2 -159 93 4 92 3 0 135 0 134 -38
9 c-66 16 -86 78 -52 160 9 21 45 37 78 36 17 -1 14 -3 -10 -10 -53 -15 -72
-106 -29 -135 27 -17 107 -18 139 -2 17 9 17 7 7 -12 -6 -12 -27 -28 -46 -36
l-34 -14 0 -135 0 -135 90 0 90 0 2 58 2 57 3 -57 4 -58 94 0 c69 0 95 3 96
13 0 10 2 10 6 0 3 -10 39 -13 129 -13 128 0 175 10 218 48 15 13 20 14 24 4
2 -8 24 -44 49 -80 52 -79 55 -75 -76 -123 l-86 -32 -315 -9 c-423 -12 -1014
-5 -1097 14 -136 31 -164 118 -95 289 109 268 552 1108 659 1249 34 45 108
111 147 132 62 33 127 31 191 -7z m2662 29 c-3 -3 -12 -4 -19 -1 -8 3 -5 6 6
6 11 1 17 -2 13 -5z m1494 -17 c-5 -5 -21 -6 -38 -2 l-28 8 25 7 c31 8 55 1
41 -13z m-6876 -67 c23 -16 69 -59 100 -95 78 -88 219 -225 258 -250 30 -19
54 -20 537 -26 278 -4 525 -7 550 -8 l45 -2 -30 -17 c-27 -14 -82 -17 -490
-20 -494 -3 -850 6 -850 23 0 6 47 15 104 20 l105 10 -93 85 c-51 46 -115 113
-143 150 -28 36 -74 86 -102 113 -57 54 -54 60 9 17z m3952 -32 c-3 -7 -5 -2
-5 12 0 14 2 19 5 13 2 -7 2 -19 0 -25z m3043 -88 c0 -21 -5 -30 -16 -30 -11
0 -15 -6 -11 -19 3 -13 1 -18 -8 -14 -24 9 -25 34 -3 63 29 37 38 37 38 0z
m-7432 -19 c31 -21 72 -93 72 -124 0 -15 13 -17 88 -18 96 -1 275 -15 227 -18
-21 -1 -26 -4 -17 -10 25 -15 -15 -21 -155 -21 l-135 0 -51 -54 c-76 -80 -140
-91 -225 -41 -40 24 -71 74 -78 127 -20 143 155 244 274 159z m811 -476 c16
-15 35 -41 42 -59 l12 -33 450 -6 c248 -4 452 -9 455 -12 3 -3 3 -7 0 -10 -12
-12 -238 -24 -561 -30 l-347 -6 -41 -44 c-23 -24 -51 -47 -62 -51 -24 -7 -70
-47 -199 -171 l-87 -83 21 -50 21 -50 211 -1 c116 0 276 -2 356 -5 80 -2 208
-4 284 -4 138 0 139 0 121 -20 -18 -19 -31 -20 -495 -20 l-477 0 -29 -46 c-16
-25 -43 -54 -60 -65 -37 -23 -104 -25 -143 -4 -36 18 -79 69 -87 101 -4 17
-11 23 -21 20 -8 -3 -139 -6 -291 -6 l-277 -1 -24 -51 c-19 -40 -32 -54 -66
-69 -79 -35 -148 -26 -194 26 -38 44 -55 97 -47 148 14 83 82 137 175 137 41
0 56 -5 84 -30 18 -16 41 -46 51 -67 l17 -38 172 -3 c95 -2 225 -1 290 3 l117
7 19 43 c31 71 117 102 207 76 31 -9 36 -5 160 115 100 95 124 123 107 123
-12 1 -38 19 -60 44 l-38 42 -231 -3 -232 -4 -6 -38 c-7 -47 -47 -96 -93 -115
-93 -39 -184 6 -214 105 l-11 38 -277 0 -277 0 -22 -38 c-30 -52 -93 -82 -146
-70 -49 11 -103 63 -116 112 -22 78 50 162 138 162 59 0 93 -22 123 -79 l24
-45 276 0 276 0 25 47 c17 35 36 53 69 71 41 20 50 22 94 12 58 -13 100 -41
120 -81 l16 -29 232 0 233 0 14 42 c21 58 66 88 136 88 42 0 59 -5 83 -25z
m779 -402 c-3 -16 -20 -19 -123 -24 -211 -11 -593 -10 -600 1 -4 6 -4 17 -1
25 5 13 60 15 366 15 339 0 361 -1 358 -17z m5327 -53 c13 -6 15 -9 5 -9 -8 0
-22 4 -30 9 -18 12 -2 12 25 0z m50 -20 c3 -5 -1 -10 -10 -10 -9 0 -13 5 -10
10 3 6 8 10 10 10 2 0 7 -4 10 -10z m-24 -327 c-12 -20 -14 -14 -5 12 4 9 9
14 11 11 3 -2 0 -13 -6 -23z m-21 -3 c0 -5 -8 -10 -17 -10 -15 0 -16 2 -3 10
19 12 20 12 20 0z m-45 -10 c-3 -5 -12 -10 -18 -10 -7 0 -6 4 3 10 19 12 23
12 15 0z m-5782 -41 c205 0 257 -3 257 -13 0 -33 -25 -35 -356 -30 l-330 4
-33 -24 c-17 -13 -76 -69 -129 -125 l-97 -101 -166 0 -167 0 -16 -37 c-20 -50
-34 -66 -76 -92 -41 -25 -105 -28 -155 -7 -29 12 -33 12 -28 0 4 -12 -174
-209 -250 -277 -11 -10 -18 -19 -16 -22 3 -2 45 -8 94 -13 50 -5 77 -10 62
-11 -16 0 -26 -5 -22 -11 5 -8 -87 -16 -126 -12 -4 1 -14 -19 -24 -43 -19 -50
-42 -71 -97 -86 -93 -25 -175 79 -143 180 8 28 87 81 119 81 34 0 77 -17 103
-42 l23 -21 22 29 c13 16 68 78 123 137 127 138 123 132 102 154 -99 110 -16
293 132 293 72 0 152 -55 167 -115 5 -19 15 -23 66 -29 34 -3 103 -6 154 -6
l92 0 129 125 128 126 100 -5 c55 -3 216 -6 358 -7z m5673 -41 c4 -7 4 -10 -1
-6 -4 4 -15 2 -24 -5 -14 -11 -14 -10 -2 6 16 20 18 21 27 5z m-52 -64 c3 -8
2 -12 -4 -9 -6 3 -10 10 -10 16 0 14 7 11 14 -7z m-5526 -152 c7 -5 10 -16 6
-25 -5 -14 -22 -17 -108 -17 l-101 0 -430 -432 c-237 -238 -458 -467 -491
-508 -55 -68 -60 -79 -56 -115 10 -104 -134 -191 -225 -135 -45 27 -65 62 -65
115 -1 55 21 90 78 122 50 29 80 29 135 0 l44 -24 210 229 c116 126 266 284
335 351 69 68 196 196 283 285 l159 162 106 0 c59 0 113 -4 120 -8z m2827
-144 c-16 -73 -59 -148 -282 -483 -319 -480 -315 -476 -428 -590 -94 -95 -113
-109 -227 -162 -14 -7 119 241 211 392 54 88 181 302 284 475 102 173 192 323
199 333 14 20 132 47 201 47 20 0 37 5 37 10 0 6 3 10 6 10 3 0 2 -15 -1 -32z
m-1718 -705 c-72 -80 -165 -182 -204 -226 -40 -44 -74 -89 -74 -101 -1 -19 -2
-19 -6 -2 -4 15 -21 2 -94 -70 -49 -49 -89 -94 -89 -101 0 -15 -2 -15 -24 -7
-9 3 -16 10 -16 16 0 5 71 82 158 171 88 89 195 203 239 252 45 50 113 121
152 160 l71 69 1 66 2 65 8 -73 9 -73 -133 -146z m-97 248 c0 -5 -46 -57 -102
-117 -130 -139 -508 -525 -508 -518 0 17 187 223 379 417 124 125 226 227 228
227 2 0 3 -4 3 -9z m618 -26 c-2 -7 -48 -62 -103 -123 l-101 -109 1 -74 c0
-41 2 -98 3 -128 l2 -55 28 36 c52 69 372 410 372 397 0 -9 -63 -89 -157 -196
-43 -50 -61 -78 -57 -90 4 -12 3 -14 -3 -6 -6 8 -34 -13 -96 -71 l-87 -83 -1
-84 c-1 -83 -1 -83 -11 -34 -5 28 -8 121 -6 208 2 86 0 156 -3 155 -3 -2 -39
-40 -79 -85 -40 -46 -77 -83 -81 -83 -5 0 -10 -152 -10 -337 -1 -186 -5 -403
-9 -483 l-6 -145 -2 181 c-1 99 -5 311 -9 469 -6 267 -7 287 -22 264 -8 -13
-46 -56 -83 -95 l-68 -71 0 -309 c0 -170 -5 -363 -10 -428 -7 -99 -6 -123 6
-140 8 -11 14 -43 14 -72 0 -42 -5 -59 -26 -83 -22 -26 -33 -31 -70 -31 -80 0
-135 47 -137 116 -2 71 78 126 155 107 l36 -10 7 124 c4 68 4 264 1 436 l-7
312 200 210 200 210 3 95 2 95 3 -83 4 -83 85 80 c47 45 90 81 95 81 5 0 9 9
9 21 0 11 4 17 11 14 5 -4 9 -13 7 -20z m4016 -31 c3 -8 2 -12 -4 -9 -6 3 -10
10 -10 16 0 14 7 11 14 -7z m-2557 -407 c118 -119 233 -250 233 -267 0 -7 8
-6 21 4 27 18 141 12 177 -10 20 -13 22 -22 21 -92 0 -42 -3 -71 -6 -63 -4 11
-7 11 -13 0 -11 -17 -101 -14 -138 5 -32 17 -60 67 -69 124 -5 30 -25 57 -102
137 -53 55 -128 135 -166 177 l-70 78 -2 -172 -1 -173 90 -90 89 -90 -2 90
c-4 118 0 220 7 213 3 -4 5 -72 5 -153 l-1 -147 77 -86 c43 -47 121 -131 175
-186 53 -56 95 -102 94 -104 -2 -1 -34 27 -72 62 l-69 65 -8 -87 c-4 -48 -7
-176 -5 -286 l3 -199 128 -121 c70 -66 127 -125 127 -129 0 -24 -167 119 -330
283 l-115 115 -5 -275 -5 -275 -3 275 -2 275 -90 90 -90 90 0 -532 c0 -375 -3
-534 -11 -539 -8 -5 -10 229 -8 846 l3 853 -79 73 -80 74 -6 -188 c-4 -103 -7
-522 -8 -932 -2 -410 -4 -740 -6 -735 -6 17 -11 1492 -5 1680 3 126 2 186 -7
200 -8 14 -9 56 -2 150 4 72 9 148 10 170 1 35 2 37 9 15 4 -14 8 -86 9 -160
l1 -135 79 -79 79 -78 7 133 c3 74 4 172 1 219 -3 47 -2 112 2 145 l7 60 10
-108 10 -107 102 -103z m72 111 c-1 -90 -5 -145 -8 -123 -7 43 -3 285 5 285 2
0 3 -73 3 -162z m819 -31 c54 -51 122 -112 152 -137 30 -24 60 -48 65 -52 14
-13 -83 29 -106 46 -13 8 -16 15 -9 18 17 5 -75 88 -98 88 -10 0 -32 16 -48
37 -35 44 -66 93 -58 93 3 0 49 -42 102 -93z m-600 -161 c33 -42 27 -54 -8
-15 -30 34 -30 35 -28 149 l1 115 6 -110 c5 -94 9 -115 29 -139z m1812 94 c0
-5 -2 -10 -4 -10 -3 0 -8 5 -11 10 -3 6 -1 10 4 10 6 0 11 -4 11 -10z m-2595
-1007 c-3 -549 -8 -1000 -11 -1002 -8 -8 -6 1977 2 1990 3 5 8 9 10 9 3 0 3
-449 -1 -997z m-2718 935 c-3 -7 -5 -2 -5 12 0 14 2 19 5 13 2 -7 2 -19 0 -25z
m33 3 c0 -15 -48 -67 -55 -60 -3 4 6 21 22 37 32 35 33 36 33 23z m114 -63
c-20 -40 -48 -87 -61 -105 -26 -34 -56 -52 -46 -27 5 14 -6 18 -41 14 -12 -1
3 17 42 52 33 29 77 72 97 96 20 23 39 42 41 42 2 0 -12 -33 -32 -72z m3549
-151 c59 -56 107 -109 107 -117 0 -8 -31 17 -68 57 -37 39 -91 92 -120 117
-29 25 -46 46 -39 46 8 0 62 -46 120 -103z m1094 67 c-3 -3 -12 -4 -19 -1 -8
3 -5 6 6 6 11 1 17 -2 13 -5z m88 -14 c3 -6 -1 -7 -9 -4 -18 7 -21 14 -7 14 6
0 13 -4 16 -10z m695 -40 c8 -5 11 -10 5 -10 -5 0 -17 5 -25 10 -8 5 -10 10
-5 10 6 0 17 -5 25 -10z m-895 -30 c10 -11 16 -20 13 -20 -3 0 -13 9 -23 20
-10 11 -16 20 -13 20 3 0 13 -9 23 -20z m-4032 -5 c-3 -9 -8 -14 -10 -11 -3 3
-2 9 2 15 9 16 15 13 8 -4z m1877 -1025 l-5 -705 -6 840 c-3 462 -3 854 0 870
12 61 16 -317 11 -1005z m947 853 c-3 -10 -5 -4 -5 12 0 17 2 24 5 18 2 -7 2
-21 0 -30z m1564 -75 c9 -17 -5 -18 -233 -16 l-243 2 215 6 c118 3 211 7 206
8 -5 1 -2 10 5 19 8 10 9 14 2 10 -8 -5 -11 0 -10 13 1 19 2 19 25 -3 13 -12
28 -30 33 -39z m-1551 5 c0 -25 -2 -44 -4 -42 -8 10 -13 89 -5 89 5 0 9 -21 9
-47z m-3607 0 c-7 -2 -19 -2 -25 0 -7 3 -2 5 12 5 14 0 19 -2 13 -5z m4485
-20 c-21 -2 -57 -2 -80 0 -24 2 -7 4 37 4 44 0 63 -2 43 -4z m-701 -155 c-3
-8 -6 -5 -6 6 -1 11 2 17 5 13 3 -3 4 -12 1 -19z m129 -110 l29 -33 -32 29
c-18 17 -33 31 -33 33 0 8 8 1 36 -29z m67 -63 c23 -32 17 -32 -13 0 -13 14
-19 25 -14 25 5 0 17 -12 27 -25z m-1715 -562 c-1 -492 -3 -532 -9 -298 -9
359 -10 829 -3 849 3 9 8 16 10 16 2 0 3 -255 2 -567z m1519 255 c-1 -57 -3
-11 -3 102 0 113 2 159 3 103 2 -57 2 -149 0 -205z m1047 277 c-4 -8 -11 -15
-16 -15 -6 0 -5 6 2 15 7 8 14 15 16 15 2 0 1 -7 -2 -15z m-2755 -582 c1 -318
-3 -494 -9 -498 -7 -4 -10 179 -9 542 1 303 5 526 9 498 5 -27 9 -271 9 -542z
m-402 -275 c-1 -128 -2 -26 -2 227 0 253 1 358 2 233 2 -125 2 -332 0 -460z
m2510 650 c-3 -7 -5 -2 -5 12 0 14 2 19 5 13 2 -7 2 -19 0 -25z m-2710 -110
c-2 -13 -4 -5 -4 17 -1 22 1 32 4 23 2 -10 2 -28 0 -40z m400 -225 c-1 -43 -3
-8 -3 77 0 85 2 120 3 78 2 -43 2 -113 0 -155z m-400 140 c-3 -10 -5 -2 -5 17
0 19 2 27 5 18 2 -10 2 -26 0 -35z m2132 -113 c-1 -68 -4 -96 -9 -80 -12 37
-12 219 0 200 5 -8 9 -62 9 -120z m-2132 68 c-3 -8 -6 -5 -6 6 -1 11 2 17 5
13 3 -3 4 -12 1 -19z m0 -65 c-3 -10 -5 -2 -5 17 0 19 2 27 5 18 2 -10 2 -26
0 -35z m2120 -505 c-1 -40 -3 -10 -3 67 0 77 1 110 3 73 2 -37 2 -100 0 -140z
m-1130 -330 c-2 -18 -4 -4 -4 32 0 36 2 50 4 33 2 -18 2 -48 0 -65z m180 0
c-2 -13 -4 -3 -4 22 0 25 2 35 4 23 2 -13 2 -33 0 -45z m-380 20 c-3 -7 -5 -2
-5 12 0 14 2 19 5 13 2 -7 2 -19 0 -25z"/>
<path d="M5611 6494 c0 -11 3 -14 6 -6 3 7 2 16 -1 19 -3 4 -6 -2 -5 -13z"/>
<path d="M7780 5210 l-105 -6 128 -2 c83 -1 126 1 122 8 -3 6 -14 9 -23 8 -9
-1 -64 -5 -122 -8z"/>
<path d="M7988 5193 c23 -2 59 -2 80 0 20 2 1 4 -43 4 -44 0 -61 -2 -37 -4z"/>
<path d="M8275 5150 c-3 -5 -1 -10 4 -10 6 0 11 5 11 10 0 6 -2 10 -4 10 -3 0
-8 -4 -11 -10z"/>
<path d="M6745 5144 c6 -2 186 -5 400 -6 302 -3 397 -6 420 -17 17 -7 48 -15
70 -17 22 -2 57 -11 78 -19 23 -9 52 -13 75 -9 20 3 65 1 99 -6 45 -8 68 -8
83 0 26 14 98 21 105 11 2 -5 -4 -16 -15 -26 -11 -10 -20 -26 -20 -35 0 -22
-19 -30 -90 -40 -37 -6 -19 -6 55 -3 114 6 135 13 135 44 0 11 6 19 14 19 16
0 29 27 19 42 -3 7 -1 8 5 4 6 -4 26 8 45 26 18 18 23 24 10 13 -21 -17 -27
-18 -56 -6 -18 8 -81 17 -142 22 -111 7 -1308 11 -1290 3z"/>
<path d="M8480 5022 c-18 -19 -30 -41 -30 -57 0 -36 59 -95 94 -95 39 0 76 41
76 85 0 38 -35 85 -64 85 -8 0 -21 3 -30 6 -10 4 -27 -6 -46 -24z"/>
<path d="M9415 5038 c-31 -17 -45 -39 -45 -73 0 -40 24 -74 67 -92 31 -12 38
-12 59 2 13 8 31 29 40 46 13 26 13 36 3 60 -23 57 -78 83 -124 57z"/>
<path d="M7133 4973 c42 -2 112 -2 155 0 42 1 7 3 -78 3 -85 0 -120 -2 -77 -3z"/>
<path d="M7008 4723 c6 -2 18 -2 25 0 6 3 1 5 -13 5 -14 0 -19 -2 -12 -5z"/>
<path d="M7648 4723 c12 -2 32 -2 45 0 12 2 2 4 -23 4 -25 0 -35 -2 -22 -4z"/>
<path d="M7040 4673 c208 -7 578 -7 573 0 -2 4 -151 6 -331 5 -180 -1 -289 -3
-242 -5z"/>
<path d="M7758 4673 c23 -2 61 -2 85 0 23 2 4 4 -43 4 -47 0 -66 -2 -42 -4z"/>
<path d="M8041 4544 c0 -11 3 -14 6 -6 3 7 2 16 -1 19 -3 4 -6 -2 -5 -13z"/>
<path d="M8828 4540 c-49 -38 -42 -127 13 -155 88 -46 180 26 144 112 -26 62
-106 84 -157 43z"/>
<path d="M8160 4533 c-26 -10 -50 -35 -50 -53 0 -26 39 -70 61 -70 24 0 69 43
69 65 0 17 -43 66 -57 64 -4 0 -15 -3 -23 -6z"/>
<path d="M7973 4503 c9 -2 23 -2 30 0 6 3 -1 5 -18 5 -16 0 -22 -2 -12 -5z"/>
<path d="M7730 4434 c8 -10 17 -21 20 -24 3 -3 25 -32 49 -65 24 -33 56 -73
70 -89 14 -16 19 -26 11 -22 -8 4 -6 0 4 -8 11 -9 23 -16 28 -16 4 0 7 -8 6
-17 -3 -39 3 -49 35 -61 39 -14 48 -15 45 -4 -2 4 7 19 20 32 16 18 21 32 17
49 -5 18 -3 22 9 18 9 -4 24 8 42 31 36 50 64 72 92 72 17 0 22 -6 22 -25 0
-18 5 -25 20 -25 17 0 20 -7 20 -40 0 -33 3 -40 20 -40 17 0 20 -7 20 -50 0
-43 3 -50 20 -50 11 0 20 5 20 10 0 6 7 10 15 10 23 0 18 -38 -10 -65 -13 -14
-20 -25 -14 -25 6 0 22 14 36 30 73 88 179 77 227 -23 l15 -34 203 -6 c112 -4
261 -7 331 -7 l128 0 -87 103 c-48 56 -111 127 -141 158 -53 55 -55 56 -92 46
-20 -6 -54 -7 -74 -3 -48 9 -112 66 -127 112 l-12 34 -207 0 -208 0 -14 -26
c-35 -67 -106 -92 -168 -59 -28 14 -75 63 -83 86 -3 8 -27 9 -88 4 l-85 -8 35
-14 c49 -21 64 -34 49 -44 -10 -6 -10 -13 -1 -33 8 -19 8 -27 -2 -35 -17 -14
-121 90 -113 113 5 13 -2 16 -37 16 -25 0 -53 3 -63 7 -16 6 -17 5 -3 -13z
m280 -179 c11 -13 10 -14 -4 -9 -9 3 -16 10 -16 15 0 13 6 11 20 -6z m860 -9
c0 -2 -8 -10 -17 -17 -16 -13 -17 -12 -4 4 13 16 21 21 21 13z m-483 -132 c-3
-3 -12 -4 -19 -1 -8 3 -5 6 6 6 11 1 17 -2 13 -5z"/>
<path d="M7105 4420 c3 -5 13 -10 21 -10 8 0 14 5 14 10 0 6 -9 10 -21 10 -11
0 -17 -4 -14 -10z"/>
<path d="M7411 4423 l257 -3 33 -33 33 -32 -26 35 -26 35 -263 0 -264 1 256
-3z"/>
<path d="M8150 4310 c0 -5 5 -10 10 -10 6 0 10 5 10 10 0 6 -4 10 -10 10 -5 0
-10 -4 -10 -10z"/>
<path d="M6865 4260 c3 -5 8 -10 11 -10 2 0 4 5 4 10 0 6 -5 10 -11 10 -5 0
-7 -4 -4 -10z"/>
<path d="M6895 4230 c-3 -6 1 -7 9 -4 18 7 21 14 7 14 -6 0 -13 -4 -16 -10z"/>
<path d="M7846 4207 c3 -10 9 -15 12 -12 3 3 0 11 -7 18 -10 9 -11 8 -5 -6z"/>
<path d="M6940 4151 c0 -6 4 -13 10 -16 6 -3 7 1 4 9 -7 18 -14 21 -14 7z"/>
<path d="M8045 4123 c3 -38 20 -93 29 -93 3 0 -2 19 -10 43 -8 23 -13 50 -10
59 2 10 0 20 -4 23 -5 3 -7 -12 -5 -32z"/>
<path d="M7910 4065 c13 -14 26 -25 28 -25 3 0 -5 11 -18 25 -13 14 -26 25
-28 25 -3 0 5 -11 18 -25z"/>
<path d="M8409 4019 c-28 -28 -22 -76 13 -102 34 -26 73 -16 93 23 36 70 -50
135 -106 79z"/>
<path d="M9346 4009 c-33 -26 -34 -62 -1 -94 29 -30 58 -32 85 -5 32 32 36 67
9 96 -28 29 -58 31 -93 3z"/>
<path d="M8472 3720 c0 -19 2 -27 5 -17 2 9 2 25 0 35 -3 9 -5 1 -5 -18z"/>
<path d="M8760 3378 c-65 -70 32 -169 104 -105 36 32 42 67 16 100 -28 35 -89
38 -120 5z"/>
<path d="M7500 3331 c0 -6 4 -12 8 -15 5 -3 9 1 9 9 0 8 -4 15 -9 15 -4 0 -8
-4 -8 -9z"/>
<path d="M7570 3181 c0 -5 5 -13 10 -16 6 -3 10 -2 10 4 0 5 -4 13 -10 16 -5
3 -10 2 -10 -4z"/>
<path d="M2188 2853 c12 -2 30 -2 40 0 9 3 -1 5 -23 4 -22 0 -30 -2 -17 -4z"/>
<path d="M6440 6978 c0 -100 2 -179 4 -177 8 9 13 359 5 359 -5 0 -9 -82 -9
-182z"/>
<path d="M6472 7140 c0 -14 2 -19 5 -12 2 6 2 18 0 25 -3 6 -5 1 -5 -13z"/>
<path d="M6200 7045 c-6 -8 -13 -29 -13 -47 -2 -27 3 -34 26 -42 49 -18 78 19
63 80 -5 18 -13 24 -35 24 -16 0 -34 -7 -41 -15z m40 -50 c0 -8 5 -15 11 -15
5 0 7 5 3 12 -4 7 -3 8 5 4 6 -4 9 -12 6 -17 -9 -13 -65 -11 -65 2 0 6 7 9 14
6 10 -4 13 -1 9 9 -3 7 0 14 6 14 6 0 11 -7 11 -15z"/>
<path d="M6512 7020 c0 -14 2 -19 5 -12 2 6 2 18 0 25 -3 6 -5 1 -5 -13z"/>
<path d="M6481 7014 c0 -11 3 -14 6 -6 3 7 2 16 -1 19 -3 4 -6 -2 -5 -13z"/>
<path d="M6257 6883 c-10 -10 -8 -23 4 -23 5 0 8 4 5 9 -4 5 0 12 6 14 7 3 8
6 2 6 -6 1 -14 -2 -17 -6z"/>
<path d="M3902 7940 c0 -19 2 -27 5 -17 2 9 2 25 0 35 -3 9 -5 1 -5 -18z"/>
<path d="M3888 7233 c7 -3 16 -2 19 1 4 3 -2 6 -13 5 -11 0 -14 -3 -6 -6z"/>
<path d="M5860 6007 c0 -70 4 -117 10 -117 9 0 3 218 -6 229 -2 2 -4 -48 -4
-112z"/>
<path d="M7598 7203 c12 -2 30 -2 40 0 9 3 -1 5 -23 4 -22 0 -30 -2 -17 -4z"/>
<path d="M7818 7203 c7 -3 16 -2 19 1 4 3 -2 6 -13 5 -11 0 -14 -3 -6 -6z"/>
<path d="M6812 6984 c-7 -8 -8 -14 -3 -14 10 0 25 19 20 25 -2 1 -10 -3 -17
-11z"/>
<path d="M3230 7172 c-13 -11 -23 -33 -27 -59 -5 -39 -2 -46 30 -78 43 -43 75
-45 118 -7 25 23 32 36 33 71 1 35 -4 47 -27 67 -34 29 -95 32 -127 6z"/>
<path d="M2246 7141 c-17 -18 -30 -44 -33 -70 -5 -36 -2 -44 30 -76 26 -26 43
-35 69 -35 76 0 121 86 83 160 -30 59 -103 69 -149 21z"/>
<path d="M3258 6579 c-22 -12 -39 -74 -29 -102 12 -30 40 -54 73 -62 22 -6 33
-1 58 23 18 19 30 41 30 57 0 33 -24 81 -45 89 -24 9 -68 7 -87 -5z"/>
<path d="M2921 6129 c-26 -28 -27 -51 -3 -72 27 -24 59 -21 78 7 13 22 14 29
2 53 -17 36 -50 41 -77 12z"/>
<path d="M8768 7012 c-31 -18 -33 -29 -16 -66 11 -26 41 -42 68 -37 41 7 56
92 21 111 -27 14 -41 12 -73 -8z"/>
<path d="M8648 6928 c-15 -20 -24 -39 -20 -43 4 -5 2 -5 -4 -2 -7 4 -22 -8
-35 -27 -13 -19 -26 -33 -30 -30 -4 2 -13 -4 -20 -14 -13 -15 -12 -16 4 -3 15
12 17 11 17 -8 0 -11 -5 -20 -11 -18 -6 1 -13 -4 -14 -11 -2 -8 -1 -8 2 -1 4
8 7 8 12 0 4 -6 17 9 31 34 17 31 31 45 45 45 15 0 17 -2 6 -9 -11 -7 -9 -10
8 -16 32 -10 84 4 77 21 -5 12 -2 12 17 3 22 -11 21 -11 -2 14 -13 15 -28 24
-34 20 -6 -3 -7 -1 -3 6 4 6 3 17 -2 24 -5 7 -11 21 -13 31 -3 17 -8 14 -31
-16z"/>
<path d="M8889 6833 c-13 -16 -12 -17 4 -4 16 13 21 21 13 21 -2 0 -10 -8 -17
-17z"/>
<path d="M8760 6825 c0 -8 8 -15 18 -15 10 0 22 -4 28 -10 6 -6 10 -3 10 9 0
11 -4 17 -8 15 -4 -3 -8 0 -8 5 0 6 -9 11 -20 11 -11 0 -20 -7 -20 -15z"/>
<path d="M8379 6703 c-13 -16 -12 -17 4 -4 16 13 21 21 13 21 -2 0 -10 -8 -17
-17z"/>
<path d="M8000 6670 c0 -5 9 -10 20 -10 11 0 20 5 20 10 0 6 -9 10 -20 10 -11
0 -20 -4 -20 -10z"/>
<path d="M8185 6530 c-3 -5 -1 -10 4 -10 6 0 11 5 11 10 0 6 -2 10 -4 10 -3 0
-8 -4 -11 -10z"/>
<path d="M8365 6530 c3 -4 -4 -15 -15 -25 -11 -10 -20 -21 -20 -26 0 -4 14 5
30 19 33 29 37 39 15 39 -8 0 -12 -3 -10 -7z"/>
<path d="M9371 6466 c-21 -25 -16 -77 9 -98 12 -10 30 -18 40 -18 45 0 68 81
32 113 -23 21 -65 22 -81 3z"/>
<path d="M8179 6393 c-13 -15 -12 -15 9 -4 23 12 28 21 13 21 -5 0 -15 -7 -22
-17z"/>
<path d="M7403 6374 c-20 -21 -15 -32 13 -26 14 2 22 7 16 11 -5 3 -11 11 -13
18 -3 8 -8 7 -16 -3z"/>
<path d="M8324 6368 l-19 -23 23 19 c21 18 27 26 19 26 -2 0 -12 -10 -23 -22z"/>
<path d="M9267 6366 c-9 -10 -17 -22 -17 -27 0 -5 -11 -14 -25 -21 -13 -6 -22
-14 -19 -19 7 -12 -57 -80 -69 -72 -5 3 -7 1 -4 -4 4 -6 -2 -18 -12 -27 -15
-14 -20 -14 -25 -4 -3 7 -4 4 -3 -6 1 -12 -8 -25 -23 -33 -14 -7 -24 -17 -22
-23 2 -10 -13 -14 -33 -10 -5 1 -7 -2 -3 -6 4 -4 3 -13 -3 -20 -7 -9 -6 -12 3
-10 20 3 281 273 276 287 -3 8 -9 6 -21 -5z"/>
<path d="M7994 6338 l-29 -33 33 29 c30 28 37 36 29 36 -2 0 -16 -15 -33 -32z"/>
<path d="M8161 6294 c-13 -15 -17 -24 -10 -22 12 4 46 48 37 48 -2 0 -15 -12
-27 -26z"/>
<path d="M7962 6229 c-1 -16 2 -29 7 -29 13 0 20 48 7 53 -7 3 -13 -7 -14 -24z"/>
<path d="M8114 6228 l-19 -23 23 19 c21 18 27 26 19 26 -2 0 -12 -10 -23 -22z"/>
<path d="M7941 6232 c-1 -6 -12 -22 -26 -34 -26 -23 -32 -38 -14 -38 5 0 7 6
3 13 -5 8 -2 7 10 -2 27 -22 49 4 37 44 -5 17 -10 24 -10 17z"/>
<path d="M8169 6203 l-24 -28 28 24 c15 14 27 26 27 28 0 8 -8 1 -31 -24z"/>
<path d="M7847 6115 c-18 -25 -18 -25 6 -25 20 0 23 4 19 25 -2 14 -5 25 -6
25 0 0 -9 -12 -19 -25z"/>
<path d="M8070 6095 c-13 -14 -19 -25 -13 -25 12 0 48 38 41 45 -2 3 -15 -6
-28 -20z"/>
<path d="M8825 6095 c-27 -13 -53 -21 -58 -18 -6 3 -7 1 -3 -6 4 -6 -2 -24
-13 -39 -24 -34 -40 -89 -22 -78 6 4 11 12 11 18 0 28 36 79 72 103 33 22 53
28 97 28 41 0 49 2 31 7 -43 14 -65 11 -115 -15z"/>
<path d="M8971 6108 c-1 -20 14 -24 25 -6 4 6 3 8 -4 4 -5 -3 -13 0 -15 6 -3
8 -6 6 -6 -4z"/>
<path d="M7400 6093 c0 -5 24 -7 52 -5 89 5 97 9 21 11 -40 0 -73 -2 -73 -6z"/>
<path d="M7966 6091 c-4 -5 3 -7 14 -4 23 6 26 13 6 13 -8 0 -17 -4 -20 -9z"/>
<path d="M7411 6056 c10 -8 89 -13 83 -5 -3 5 -24 9 -46 9 -23 0 -39 -2 -37
-4z"/>
<path d="M7760 6050 c0 -5 7 -7 15 -4 8 4 15 8 15 10 0 2 -7 4 -15 4 -8 0 -15
-4 -15 -10z"/>
<path d="M7839 6046 c52 -14 59 -25 35 -60 -20 -31 -34 -33 -34 -6 0 13 -7 20
-20 20 -14 0 -20 -7 -20 -24 0 -13 -7 -29 -15 -36 -8 -7 -15 -18 -15 -25 0 -6
-11 -24 -23 -39 l-24 -28 -261 4 c-143 2 -258 0 -255 -4 2 -5 132 -8 288 -8
l284 0 28 38 c15 20 60 70 100 110 l72 72 -92 -1 c-90 -1 -91 -1 -48 -13z m81
-6 c0 -5 -2 -10 -4 -10 -3 0 -8 5 -11 10 -3 6 -1 10 4 10 6 0 11 -4 11 -10z"/>
<path d="M7583 6043 c32 -2 81 -2 110 0 29 2 3 3 -58 3 -60 0 -84 -1 -52 -3z"/>
<path d="M8016 6042 c-3 -5 8 -6 25 -4 16 2 29 6 29 8 0 8 -49 4 -54 -4z"/>
<path d="M8845 5996 c-52 -52 -38 -131 30 -163 46 -22 81 -10 113 37 30 44 24
84 -18 123 -40 35 -91 37 -125 3z"/>
<path d="M7946 5941 c-14 -15 -26 -36 -25 -47 0 -10 3 -13 6 -6 7 19 31 14 38
-8 3 -11 15 -20 25 -20 16 0 18 -5 14 -30 -4 -19 -2 -30 5 -30 6 0 10 -5 9
-11 -2 -6 3 -14 10 -16 19 -7 105 85 98 103 -3 9 -6 22 -6 29 0 15 -70 50
-116 58 -25 5 -36 1 -58 -22z"/>
<path d="M7338 5873 c7 -3 16 -2 19 1 4 3 -2 6 -13 5 -11 0 -14 -3 -6 -6z"/>
<path d="M8261 5860 c-1 -10 -12 -15 -32 -16 -17 -1 -37 -8 -46 -16 -13 -14
-11 -15 21 -11 21 2 36 -1 36 -7 0 -5 9 -10 20 -10 21 0 25 20 10 55 -6 13 -9
15 -9 5z"/>
<path d="M7860 5835 c0 -8 16 -32 36 -53 l36 -37 -30 39 c-17 22 -29 43 -26
47 2 4 0 10 -6 14 -5 3 -10 -1 -10 -10z"/>
<path d="M7610 5790 l-135 -6 123 -2 c67 -1 121 -5 121 -9 -5 -34 3 -53 22
-53 19 0 21 4 15 31 -5 26 -4 30 8 20 11 -9 16 -9 21 0 12 18 25 -12 15 -32
-11 -20 18 -59 44 -59 9 0 16 -6 16 -12 0 -10 2 -10 8 -1 5 8 13 9 22 3 8 -6
24 -10 34 -10 17 0 16 4 -10 31 -53 57 -125 109 -147 107 -12 -1 -83 -5 -157
-8z"/>
<path d="M7163 5758 c-17 -18 -55 -69 -84 -113 -65 -96 -78 -120 -46 -81 23
26 26 27 31 10 3 -11 4 -7 2 9 -2 17 1 27 10 27 8 0 11 -6 7 -17 -4 -11 -3
-14 6 -9 7 5 10 14 7 22 -3 7 -1 16 5 20 6 3 8 12 5 20 -3 7 0 16 6 20 7 4 8
3 4 -4 -9 -15 55 -3 69 13 29 32 33 52 15 65 -40 29 -12 38 123 39 72 1 133 4
136 6 2 3 -56 5 -130 5 l-135 0 -31 -32z m-9 -57 c-19 -32 -34 -40 -34 -19 0
14 41 60 48 54 2 -3 -4 -18 -14 -35z"/>
<path d="M7280 5755 c0 -8 9 -15 20 -15 11 0 20 4 20 9 0 5 10 12 23 14 12 2
3 5 -20 6 -32 1 -43 -3 -43 -14z"/>
<path d="M8075 5740 c-17 -19 -17 -20 -1 -20 11 0 14 5 10 12 -5 7 -2 9 9 5
11 -4 14 -2 10 9 -7 18 -6 18 -28 -6z"/>
<path d="M7500 5710 c0 -5 5 -10 10 -10 6 0 10 5 10 10 0 6 -4 10 -10 10 -5 0
-10 -4 -10 -10z"/>
<path d="M7530 5690 c-8 -11 -22 -20 -31 -20 -9 0 -19 -7 -23 -15 -3 -8 -11
-15 -18 -15 -7 0 -25 -16 -41 -35 -23 -29 -26 -40 -21 -74 l6 -40 -83 -4 -84
-3 102 -2 c56 -1 108 1 117 4 8 3 20 22 27 42 6 21 28 55 48 77 30 32 45 41
78 43 23 2 52 -2 65 -8 l23 -11 -24 20 c-13 12 -33 21 -45 21 -37 0 -66 12
-66 26 0 20 -13 17 -30 -6z"/>
<path d="M7988 5677 c-44 -30 -140 -119 -182 -166 l-19 -21 94 1 c52 1 84 4
72 6 -25 5 -36 34 -31 79 2 22 8 28 22 26 12 -2 17 1 13 10 -7 19 19 52 34 42
8 -4 10 -3 5 4 -4 7 -1 12 6 12 7 0 19 9 26 20 16 26 13 26 -40 -13z m-73
-167 c-3 -5 -25 -9 -48 -9 l-42 2 40 7 c22 4 44 8 48 9 5 0 5 -3 2 -9z"/>
<path d="M7594 5562 c-18 -12 -44 -69 -44 -97 0 -50 66 -81 125 -59 19 7 45
55 45 82 0 40 -94 96 -126 74z"/>
<path d="M9452 5539 c-24 -9 -48 -42 -57 -81 -6 -23 -1 -34 28 -63 52 -52 111
-46 142 15 21 41 19 55 -15 93 -32 37 -64 48 -98 36z"/>
<path d="M7350 5530 c0 -5 5 -10 11 -10 5 0 7 5 4 10 -3 6 -8 10 -11 10 -2 0
-4 -4 -4 -10z"/>
<path d="M1571 6794 c-26 -33 -27 -56 -3 -77 43 -39 109 -8 98 46 -13 62 -59
77 -95 31z"/>
<path d="M1106 6458 c-33 -46 -9 -108 42 -108 23 0 52 34 52 61 0 24 -39 69
-60 69 -10 0 -26 -10 -34 -22z"/>
<path d="M4050 4886 c-40 -75 -36 -99 19 -104 l31 -3 -1 68 c-1 108 -9 115
-49 39z"/>
<path d="M6803 3358 c1 -20 5 -34 10 -31 10 6 9 35 -3 53 -6 10 -8 4 -7 -22z"/>
<path d="M6840 3310 c6 -11 8 -25 5 -30 -7 -11 18 -40 34 -40 5 0 -2 20 -16
45 -24 43 -45 66 -23 25z"/>
<path d="M6660 3301 c0 -6 4 -12 8 -15 5 -3 9 1 9 9 0 8 -4 15 -9 15 -4 0 -8
-4 -8 -9z"/>
<path d="M6895 3213 c4 -14 2 -23 -4 -23 -6 0 -11 -7 -11 -15 0 -9 9 -15 21
-15 18 0 20 4 14 28 -3 15 -11 32 -17 37 -7 7 -8 3 -3 -12z"/>
<path d="M6783 3105 c0 -8 4 -12 9 -9 5 3 6 10 3 15 -9 13 -12 11 -12 -6z"/>
<path d="M6820 3031 c0 -6 4 -13 10 -16 6 -3 7 1 4 9 -7 18 -14 21 -14 7z"/>
<path d="M1509 5991 c-42 -42 -40 -92 4 -136 60 -60 113 -54 157 18 29 46 25
74 -14 113 -46 46 -104 48 -147 5z"/>
<path d="M2358 5543 c-45 -52 -43 -82 8 -122 36 -28 70 -26 99 5 39 42 32 95
-16 119 -38 20 -73 19 -91 -2z"/>
<path d="M760 5523 c-55 -20 -68 -86 -25 -128 31 -32 57 -31 96 3 27 24 30 32
24 60 -3 17 -18 41 -32 52 -26 20 -37 23 -63 13z"/>
<path d="M1614 5519 c-65 -23 -84 -111 -35 -160 60 -60 146 -28 158 58 4 32 1
45 -18 66 -28 31 -75 48 -105 36z"/>
<path d="M1056 5019 c-34 -40 -34 -88 -1 -127 32 -38 67 -47 104 -27 67 34 81
106 32 156 -42 42 -99 41 -135 -2z"/>
<path d="M1970 5030 c-31 -31 -27 -99 8 -132 42 -41 73 -44 110 -13 26 22 32
34 32 67 0 79 -98 130 -150 78z"/>
<path d="M1544 4560 c-51 -20 -69 -92 -39 -150 41 -80 149 -61 176 30 10 33 9
43 -5 64 -30 46 -91 72 -132 56z"/>
<path d="M1049 4001 c-37 -37 -38 -73 -2 -101 33 -26 61 -23 84 10 31 45 33
67 5 95 -33 32 -51 32 -87 -4z"/>
<path d="M1523 3420 c-25 -10 -43 -39 -43 -69 0 -26 46 -61 81 -61 57 0 80 82
33 119 -29 23 -38 24 -71 11z"/>
<path d="M3781 2284 c-26 -33 -26 -39 -1 -64 22 -22 42 -25 69 -10 28 14 33
38 16 71 -20 37 -56 39 -84 3z"/>
<path d="M6263 3133 c-24 -5 -41 -44 -35 -81 7 -46 122 -70 155 -34 24 27 23
98 -2 112 -19 10 -75 11 -118 3z"/>
<path d="M5850 2806 l0 -297 24 -22 c12 -12 50 -46 84 -75 l62 -53 0 233 c0
128 3 256 6 283 l6 51 -86 84 c-48 47 -89 87 -91 89 -3 2 -5 -130 -5 -293z"/>
<path d="M6047 2873 c-4 -21 -7 -151 -7 -289 l0 -251 60 -47 c33 -26 60 -50
60 -54 1 -4 14 -22 29 -40 l29 -34 1 184 c0 100 4 230 7 288 l6 105 -90 88
-89 89 -6 -39z"/>
</g>
</svg>
